<?xml version="1.0" encoding="UTF-8"?> <svg xmlns="http://www.w3.org/2000/svg" xmlns:xlink="http://www.w3.org/1999/xlink" version="1.1" id="Layer_1" x="0px" y="0px" viewBox="0 0 380 227.6" style="enable-background:new 0 0 380 227.6;" xml:space="preserve"> <style type="text/css"> .st0{fill:#ffffff;} .st1{fill:#3AAA35;} .st2{display:none;} .st3{display:inline;} .st4{fill:#EEB9C0;} </style> <g> <g id="Logo"> <path class="st0" d="M0.1,144.2h6v1.9c0,4.7,2.5,6.6,9,6.6h13.7c9.6,0,12.7-0.4,12.7-6v-0.3c0-3.7-1-5.7-8.7-5.7H13 c-9,0-12.4-2.9-12.4-10.1v-2.2c0-6.2,3.5-9.6,19.3-9.6h9.8c14.5,0,16.5,4.2,16.5,9.6v2h-6V130c0-5.8-3.9-6-10.9-6H18.2 c-9.2,0-11.2,0.9-11.2,5.2v1.4c0,3.1,1,4.9,7.8,4.9h16.9c9.6,0,16.2,1,16.2,11.3v0.1c0,10.7-9.8,11-17.7,11H18.4 c-9.5,0-18.4,0-18.4-11.4L0.1,144.2L0.1,144.2z"></path> <path class="st0" d="M102.1,134.5c0-8.9-5.2-10.6-12.7-10.6H76.3c-7.5,0-12.7,1.7-12.7,10.6v7.6c0,8.9,5.2,10.6,12.7,10.6h13.1 c7.5,0,12.7-1.7,12.7-10.6V134.5z M57.3,134.1c0-12.5,8.9-15.4,20.9-15.4h9.2c12.2,0,20.9,2.9,20.9,15.4v8.4 c0,12.5-8.9,15.4-20.9,15.4h-9.2c-12.2,0-20.9-2.9-20.9-15.4L57.3,134.1L57.3,134.1z"></path> <polygon class="st0" points="113.8,119.3 120.5,119.3 139.1,152.1 157.5,119.3 164.3,119.3 142.8,157.3 135.2,157.3 "></polygon> <path class="st0" d="M210,145.4c0-5.2-4.6-5.9-14.5-5.9h-9.9c-8.3,0-10.6,1.2-10.6,6v1.2c0,4.2,1.5,6,10.3,6h8.5 c11.6,0,16.1-0.8,16.1-5.6L210,145.4L210,145.4z M210,153.6h-0.2c-1.7,3.4-3.7,4.4-13.6,4.4h-15.4c-9.7,0-12.2-4.2-12.2-11.4V144 c0-8.7,6.1-9.7,17.3-9.7h10.3c8.4,0,11.3,0.9,13.6,4.5h0.2v-7.1c0-6.8-4.3-7.8-14.2-7.8h-9.4c-8.1,0-9.6,1.9-9.6,5.1v1.3h-6.4 v-1.9c0-6.8,4.4-9.8,15.9-9.8h10.1c11.9,0,20,1.8,20,13.1v25.3H210L210,153.6L210,153.6z"></path> <path class="st0" d="M227.9,119.3h6v6.6h0.1c2.4-5.9,7.4-7.1,15.4-7.1h9.6c12,0,15.8,6,15.8,12.9v25.7h-6.4v-24.2 c0-5.6-1.6-9.2-14-9.2h-1.6c-15,0-18.4,2.8-18.4,11.8v21.5h-6.4V119.3L227.9,119.3z"></path> <path class="st0" d="M290.2,124.6h-8.4v-5.2h8.4v-9h6.4v9H322v5.2h-25.4v19c0,7,2.5,9.2,9.5,9.2h2c8.5,0,9.9-1.8,9.9-9.8v-2.8h5.2 v4.2c0,7.6-0.7,13.7-14.6,13.7h-3.5c-12,0-14.8-5.8-14.8-12L290.2,124.6L290.2,124.6z"></path> <path class="st0" d="M373.6,145.4c0-5.2-4.6-5.9-14.5-5.9h-9.9c-8.3,0-10.6,1.2-10.6,6v1.2c0,4.2,1.5,6,10.3,6h8.5 c11.6,0,16.1-0.8,16.1-5.6L373.6,145.4L373.6,145.4z M373.6,153.6h-0.2c-1.7,3.4-3.7,4.4-13.6,4.4h-15.4 c-9.7,0-12.2-4.2-12.2-11.4V144c0-8.7,6.1-9.7,17.3-9.7h10.3c8.4,0,11.4,0.9,13.6,4.5h0.2v-7.1c0-6.8-4.3-7.8-14.2-7.8H350 c-8.1,0-9.6,1.9-9.6,5.1v1.3H334v-1.9c0-6.8,4.4-9.8,15.9-9.8H360c11.9,0,20,1.8,20,13.1v25.3h-6.4V153.6L373.6,153.6z"></path> <path class="st1" d="M33.9,40.5c0,3.9-3.1,6.9-6.9,6.9H7c-3.9,0-6.9-3.1-6.9-6.9V20.5c0-3.9,3.1-6.9,6.9-6.9H27 c3.9,0,6.9,3.1,6.9,6.9V40.5z"></path> <path class="st1" d="M207.3,53.6c0,5.3-4.3,9.7-9.7,9.7h-27.3c-5.3,0-9.6-4.3-9.6-9.7V26.3c0-5.3,4.3-9.7,9.6-9.7h27.3 c5.3,0,9.7,4.3,9.7,9.7V53.6z"></path> <path class="st1" d="M113.2,71.3c0,4.5-3.6,8.2-8.2,8.2H81.9c-4.5,0-8.1-3.6-8.1-8.2V48.1c0-4.5,3.6-8.2,8.1-8.2h23.1 c4.5,0,8.2,3.7,8.2,8.2v23.2H113.2z"></path> <path class="st1" d="M306.2,43.1c0,6.2-5,11.3-11.3,11.3H263c-6.2,0-11.3-5-11.3-11.3V11.3c0-6.1,5-11.3,11.3-11.3h31.9 c6.2,0,11.3,5,11.3,11.3L306.2,43.1L306.2,43.1z"></path> <path class="st1" d="M380,71.2c0,4.5-3.6,8.1-8.1,8.1h-23c-4.5,0-8.1-3.6-8.1-8.1V48.1c0-4.5,3.6-8.1,8.1-8.1h23 c4.5,0,8.1,3.6,8.1,8.1V71.2z"></path> </g> <g id="Claim__x28_thicker_x29_"> <g> <path class="st0" d="M140.4,204.4c-3-1.2-4.3-2.1-4.3-4.1c0-1.7,1.2-3.4,3.9-3.4c1.6,0,3,0.4,4.2,1.3l0.4,0.3l1.1-2.5l-0.3-0.2 c-1.3-0.9-3.1-1.4-5.1-1.4c-4.7,0-7,3.2-7,6.3c0,2.7,2,4.9,5.8,6.3c3.2,1.3,4.4,2.5,4.4,4.6c0,2.3-1.8,3.8-4.7,3.8 c-2.1,0-3.9-0.9-4.7-1.4l-0.4-0.2l-1.1,2.5l0.3,0.2c1.6,1,3.7,1.6,5.8,1.6c4.7,0,7.8-2.7,7.8-6.6 C146.2,207.3,143.2,205.6,140.4,204.4z"></path> <rect x="151.2" y="194.7" class="st0" width="2.9" height="22.7"></rect> <path class="st0" d="M152.6,186.6c-1.2,0-2.2,1.1-2.2,2.3c0,1.3,0.9,2.2,2.1,2.2l0,0c1.2,0,2.2-1,2.2-2.2 C154.8,187.6,153.9,186.6,152.6,186.6z"></path> <path class="st0" d="M184.2,194.2c-2.2,0-3.8,0.5-5.5,1.9c-0.6,0.5-1.3,1.3-2,2.5c-1.2-2.7-3.6-4.3-6.4-4.3c-3,0-5.2,1.2-6.8,3.6 l-0.1-3.1h-2.8v0.4c0.1,1.6,0.2,3.1,0.2,5.2v17.1h2.9v-13.9c0-0.6,0.1-1.3,0.3-2c0.7-2.2,2.8-4.7,5.7-4.7c3.1,0,5.1,2.5,5.1,6.5 v14.1h2.9v-14.5c0-0.8,0.2-1.5,0.3-2.1c0.8-2,2.8-4.1,5.4-4.1c4.4,0,5.3,4.1,5.3,7.5v13.1h2.9v-13.3 C191.8,194.7,185.5,194.2,184.2,194.2z"></path> <path class="st0" d="M208.7,194.2c-3.4,0-6.1,1.4-7.9,3.9l-0.1-3.4h-2.9v0.4c0.1,2,0.2,4,0.2,6.9v24.5h2.9v-11.9 c1.6,2.1,4.2,3.3,7.1,3.3c5.1,0,10.3-3.8,10.3-12.2C218.6,199,214.6,194.2,208.7,194.2z M215.7,205.9c0,5.9-2.9,9.5-7.5,9.5 c-3.2,0-6-2.1-6.8-5.3c-0.1-0.5-0.2-1-0.2-1.6v-4.3c0-0.5,0.1-1,0.3-1.6l0.1-0.2c0.9-3.3,3.7-5.5,6.8-5.5 C213.4,196.8,215.7,201.6,215.7,205.9z"></path> <rect x="223.3" y="184.2" class="st0" width="2.9" height="33.3"></rect> <path class="st0" d="M234.5,186.6c-1.2,0-2.2,1.1-2.2,2.3c0,1.3,0.9,2.2,2.1,2.2l0,0c1.2,0,2.2-1,2.2-2.2 C236.6,187.6,235.7,186.6,234.5,186.6z"></path> <rect x="233.1" y="194.7" class="st0" width="2.9" height="22.7"></rect> <path class="st0" d="M252.2,196.8c2.4,0,4,0.7,5,1.2l0.4,0.2l1.1-2.5l-0.2-0.2c-1-0.7-3.4-1.4-6-1.4c-6.8,0-11.7,5-11.7,12.1 c0,6.7,4.5,11.6,10.9,11.6c3,0,5.2-0.8,6.6-1.5l0.3-0.1l-0.8-2.5l-0.4,0.2c-1.3,0.6-2.9,1.3-5.3,1.3c-5,0-8.3-3.7-8.3-9.1 C243.8,201.6,246.4,196.8,252.2,196.8z"></path> <rect x="263" y="194.7" class="st0" width="2.9" height="22.7"></rect> <path class="st0" d="M264.5,186.6c-1.2,0-2.2,1-2.2,2.3s0.9,2.2,2.1,2.2l0,0c1.2,0,2.2-1,2.2-2.2 C266.6,187.6,265.6,186.6,264.5,186.6z"></path> <path class="st0" d="M276.3,189.8l-2.9,1.1v3.9h-3.7v2.5h3.7v13.5c0,2.6,0.5,4.4,1.5,5.5c0.9,1.1,2.3,1.6,4,1.6 c1.2,0,2.3-0.2,3.2-0.5l0.3-0.1L282,215l-0.4,0.1c-0.4,0.1-1.1,0.3-2.4,0.3c-1.2,0-2.8-0.4-2.8-4.1v-13.9h6.3v-2.5h-6.3 L276.3,189.8L276.3,189.8z"></path> <path class="st0" d="M295.5,209.2c-0.5,1.3-0.9,2.5-1.3,3.7c0,0.1-0.1,0.2-0.1,0.2c-0.4-1.3-0.9-2.7-1.3-3.8l-5.9-14.6h-3.1 l8.3,20.8c0.2,0.6,0.2,0.8,0.2,0.8c0,0.2-0.1,0.4-0.2,0.8c-1.1,2.6-2.6,4.4-3.6,5.4c-1.5,1.4-3,2.1-3.7,2.3l-0.4,0.1l0.9,2.5 l0.3-0.1c0.6-0.2,2.2-0.9,4-2.4c2.9-2.5,4.7-6.4,7.5-13.5l6.7-16.9h-3.1L295.5,209.2z"></path> <path class="st0" d="M320.4,193.9c0-5.1,1.8-7.5,5.4-7.5c1.9,0,3.4,0.7,4.2,1.3l0.3,0.3l1.4-2.3l-0.2-0.2 c-1.1-0.9-3.4-1.6-5.3-1.6c-5.6,0-8.8,3.6-8.8,10v1h-3.2v2.5h3.2v20.1h2.9v-20.1h9.4v20.1h2.9v-22.7h-12.2v-1H320.4z"></path> <path class="st0" d="M348.1,194.2c-2.5,0-4.7,1.5-6,3.9l-0.1-3.4h-2.8v0.4c0.1,1.9,0.2,4,0.2,6.6v15.7h2.9V205 c0-0.8,0.1-1.5,0.2-2c0.6-3.5,2.7-5.8,5.4-5.8c0.4,0,0.7,0,1,0l0.4,0.1v-2.8l-0.3-0.1C348.7,194.3,348.4,194.2,348.1,194.2z"></path> <path class="st0" d="M359.1,204.4c-3-1.2-4.3-2.1-4.3-4.1c0-1.7,1.2-3.4,3.9-3.4c1.6,0,3,0.4,4.2,1.3l0.4,0.3l1.1-2.5l-0.3-0.2 c-1.3-0.9-3.1-1.4-5.1-1.4c-4.7,0-7,3.2-7,6.3c0,2.7,2,4.9,5.8,6.3c3.2,1.3,4.4,2.5,4.4,4.6c0,2.3-1.8,3.8-4.7,3.8 c-2.1,0-3.9-0.9-4.7-1.4l-0.4-0.2l-1.1,2.5l0.3,0.2c1.6,1,3.7,1.6,5.8,1.6c4.7,0,7.8-2.7,7.8-6.6 C365,207.3,362,205.6,359.1,204.4z"></path> <path class="st0" d="M380,197.2v-2.5h-6.3v-5l-2.9,1.1v3.9H367v2.5h3.7v13.5c0,2.6,0.5,4.4,1.5,5.5c0.9,1.1,2.3,1.6,4,1.6 c1.2,0,2.3-0.2,3.2-0.5l0.3-0.1l-0.4-2.4L379,215c-0.4,0.1-1.1,0.3-2.4,0.3c-1.2,0-2.8-0.4-2.8-4.1v-13.9H380z"></path> </g> </g> </g> <g id="Clearspace" class="st2"> <g class="st3"> <path class="st4" d="M255.2-13.7h6v1.9c0,4.7,2.5,6.6,9,6.6h13.7c9.6,0,12.7-0.4,12.7-6v-0.3c0-3.7-1-5.7-8.7-5.7h-19.8 c-9,0-12.4-2.9-12.4-10.1v-2.2c0-6.2,3.5-9.6,19.3-9.6h9.8c14.5,0,16.5,4.2,16.5,9.6v2h-6v-0.4c0-5.8-3.9-6-10.9-6h-11.2 c-9.2,0-11.2,0.9-11.2,5.2v1.4c0,3.1,1,4.9,7.8,4.9h16.9c9.6,0,16.2,1,16.2,11.3v0.1c0,10.7-9.8,11-17.7,11h-11.6 c-9.5,0-18.4,0-18.4-11.4L255.2-13.7L255.2-13.7z"></path> <path class="st4" d="M255.2-53h6v1.9c0,4.7,2.5,6.6,9,6.6h13.7c9.6,0,12.7-0.4,12.7-6v-0.3c0-3.7-1-5.7-8.7-5.7h-19.8 c-9,0-12.4-2.9-12.4-10.1v-2.3c0-6.2,3.5-9.6,19.3-9.6h9.8c14.5,0,16.5,4.2,16.5,9.6v2h-6v-0.4c0-5.8-3.9-6-10.9-6h-11.2 c-9.2,0-11.2,0.9-11.2,5.2v1.4c0,3.1,1,4.9,7.8,4.9h16.9c9.6,0,16.2,1,16.2,11.3v0.1c0,10.7-9.8,11-17.7,11h-11.6 c-9.5,0-18.4,0-18.4-11.4L255.2-53L255.2-53z"></path> </g> <g class="st3"> <path class="st4" d="M255.2,292.6h6v1.9c0,4.7,2.5,6.6,9,6.6h13.7c9.6,0,12.7-0.4,12.7-6v-0.3c0-3.7-1-5.7-8.7-5.7h-19.8 c-9,0-12.4-2.9-12.4-10.1v-2.2c0-6.2,3.5-9.6,19.3-9.6h9.8c14.5,0,16.5,4.2,16.5,9.6v2h-6v-0.4c0-5.8-3.9-6-10.9-6h-11.2 c-9.2,0-11.2,0.9-11.2,5.2v1.4c0,3.1,1,4.9,7.8,4.9h16.9c9.6,0,16.2,1,16.2,11.3v0.1c0,10.7-9.8,11-17.7,11h-11.6 c-9.5,0-18.4,0-18.4-11.4L255.2,292.6L255.2,292.6z"></path> <path class="st4" d="M255.2,253.3h6v1.9c0,4.7,2.5,6.6,9,6.6h13.7c9.6,0,12.7-0.4,12.7-6v-0.3c0-3.7-1-5.7-8.7-5.7h-19.8 c-9,0-12.4-2.9-12.4-10.1v-2.2c0-6.2,3.5-9.6,19.3-9.6h9.8c14.5,0,16.5,4.2,16.5,9.6v2h-6v-0.4c0-5.8-3.9-6-10.9-6h-11.2 c-9.2,0-11.2,0.9-11.2,5.2v1.4c0,3.1,1,4.9,7.8,4.9h16.9c9.6,0,16.2,1,16.2,11.3v0.1c0,10.7-9.8,11-17.7,11h-11.6 c-9.5,0-18.4,0-18.4-11.4L255.2,253.3L255.2,253.3z"></path> </g> <g class="st3"> <path class="st4" d="M445,158v-6h1.9c4.7,0,6.6-2.5,6.6-9v-13.7c0-9.6-0.4-12.7-6-12.7h-0.3c-3.7,0-5.7,1-5.7,8.7v19.8 c0,9-2.9,12.4-10.1,12.4h-2.2c-6.2,0-9.6-3.5-9.6-19.3v-9.8c0-14.5,4.2-16.5,9.6-16.5h2v6h-0.4c-5.8,0-6,3.9-6,10.9V140 c0,9.2,0.9,11.2,5.2,11.2h1.4c3.1,0,4.9-1,4.9-7.8v-16.9c0-9.6,1-16.2,11.3-16.2h0.1c10.7,0,11,9.8,11,17.7v11.8 c0,9.5,0,18.4-11.4,18.4H445V158z"></path> <path class="st4" d="M405.7,158v-6h1.9c4.7,0,6.6-2.5,6.6-9v-13.7c0-9.6-0.4-12.7-6-12.7h-0.3c-3.7,0-5.7,1-5.7,8.7v19.8 c0,9-2.9,12.4-10.1,12.4h-2.2c-6.2,0-9.6-3.5-9.6-19.3v-9.8c0-14.5,4.2-16.5,9.6-16.5h2v6h-0.4c-5.8,0-6,3.9-6,10.9V140 c0,9.2,0.9,11.2,5.2,11.2h1.4c3.1,0,4.9-1,4.9-7.8v-16.9c0-9.6,1-16.2,11.3-16.2h0.1c10.7,0,11,9.8,11,17.7v11.8 c0,9.5,0,18.4-11.4,18.4h-2.3V158z"></path> </g> <g class="st3"> <path class="st4" d="M-13.6,158v-6h1.9c4.7,0,6.6-2.5,6.6-9v-13.7c0-9.6-0.4-12.7-6-12.7h-0.3c-3.7,0-5.7,1-5.7,8.7v19.8 c0,9-2.9,12.4-10.1,12.4h-2.2c-6.2,0-9.6-3.5-9.6-19.3v-9.8c0-14.5,4.2-16.5,9.6-16.5h2v6h-0.4c-5.8,0-6,3.9-6,10.9V140 c0,9.2,0.9,11.2,5.2,11.2h1.4c3.1,0,4.9-1,4.9-7.8v-16.9c0-9.6,1-16.2,11.3-16.2h0.1c10.7,0,11,9.8,11,17.7v11.8 c0,9.5,0,18.4-11.4,18.4h-2.3C-13.6,158.2-13.6,158-13.6,158z"></path> <path class="st4" d="M-52.9,158v-6h1.9c4.7,0,6.6-2.5,6.6-9v-13.7c0-9.6-0.4-12.7-6-12.7h-0.3c-3.7,0-5.7,1-5.7,8.7v19.8 c0,9-2.9,12.4-10.1,12.4h-2.3c-6.2,0-9.6-3.5-9.6-19.3v-9.8c0-14.5,4.2-16.5,9.6-16.5h2v6h-0.4c-5.8,0-6,3.9-6,10.9V140 c0,9.2,0.9,11.2,5.2,11.2h1.4c3.1,0,4.9-1,4.9-7.8v-16.9c0-9.6,1-16.2,11.3-16.2h0.1c10.7,0,11,9.8,11,17.7v11.8 c0,9.5,0,18.4-11.4,18.4h-2.2C-52.9,158.2-52.9,158-52.9,158z"></path> </g> </g> </svg> 